<svg width="160" height="148" viewBox="0 0 160 148" fill="none" xmlns="http://www.w3.org/2000/svg">
<path d="M107.822 10.3255C106.523 10.3255 105.278 9.80941 104.359 8.89084C103.44 7.97228 102.924 6.72643 102.924 5.42738C102.924 4.12833 103.44 2.88248 104.359 1.96391C105.278 1.04534 106.523 0.529297 107.822 0.529297L140.476 0.529297C143.94 0.529297 147.263 1.90541 149.712 4.35491C152.162 6.80441 153.538 10.1266 153.538 13.5908V46.2445C153.538 47.5436 153.022 48.7894 152.103 49.7079C151.185 50.6265 149.939 51.1425 148.64 51.1425C147.341 51.1425 146.095 50.6265 145.176 49.7079C144.258 48.7894 143.742 47.5436 143.742 46.2445V13.5908C143.742 12.7247 143.398 11.8942 142.785 11.2818C142.173 10.6695 141.342 10.3255 140.476 10.3255H107.822ZM143.742 101.756C143.742 100.457 144.258 99.2109 145.176 98.2924C146.095 97.3738 147.341 96.8578 148.64 96.8578C149.939 96.8578 151.185 97.3738 152.103 98.2924C153.022 99.2109 153.538 100.457 153.538 101.756V134.41C153.538 137.874 152.162 141.196 149.712 143.645C147.263 146.095 143.94 147.471 140.476 147.471H107.463C106.164 147.471 104.918 146.955 104 146.036C103.081 145.118 102.565 143.872 102.565 142.573C102.565 141.274 103.081 140.028 104 139.109C104.918 138.191 106.164 137.675 107.463 137.675H140.411C141.277 137.675 142.108 137.331 142.72 136.718C143.332 136.106 143.676 135.276 143.676 134.41V101.756H143.742ZM52.2461 137.675C53.5451 137.675 54.791 138.191 55.7096 139.109C56.6281 140.028 57.1442 141.274 57.1442 142.573C57.1442 143.872 56.6281 145.118 55.7096 146.036C54.791 146.955 53.5451 147.471 52.2461 147.471H19.5922C16.1281 147.471 12.8058 146.095 10.3563 143.645C7.90684 141.196 6.53073 137.874 6.53073 134.41V101.756C6.53073 100.457 7.04677 99.2109 7.96534 98.2923C8.88391 97.3737 10.1298 96.8577 11.4288 96.8577C12.7279 96.8577 13.9737 97.3737 14.8923 98.2923C15.8108 99.2109 16.3269 100.457 16.3269 101.756V134.41C16.3269 135.276 16.671 136.106 17.2833 136.718C17.8957 137.331 18.7262 137.675 19.5922 137.675H52.2461ZM16.3269 46.2445C16.3269 47.5436 15.8108 48.7894 14.8923 49.708C13.9737 50.6266 12.7279 51.1426 11.4288 51.1426C10.1298 51.1426 8.88391 50.6266 7.96534 49.708C7.04677 48.7894 6.53073 47.5436 6.53073 46.2445V13.5908C6.53073 10.1266 7.90684 6.80441 10.3563 4.35491C12.8058 1.90541 16.1281 0.529297 19.5922 0.529297L52.2461 0.529297C53.5451 0.529297 54.791 1.04534 55.7096 1.96391C56.6281 2.88248 57.1442 4.12833 57.1442 5.42738C57.1442 6.72643 56.6281 7.97228 55.7096 8.89084C54.791 9.80941 53.5451 10.3255 52.2461 10.3255H19.5922C18.7262 10.3255 17.8957 10.6695 17.2833 11.2819C16.671 11.8942 16.3269 12.7248 16.3269 13.5908V46.2445ZM4.89801 69.1021C3.59898 69.1021 2.35315 69.6182 1.43459 70.5367C0.516039 71.4553 0 72.7011 0 74.0002C0 75.2992 0.516039 76.545 1.43459 77.4636C2.35315 78.3821 3.59898 78.8982 4.89801 78.8982H29.0945V69.1021H4.89801ZM155.105 69.1021H130.909V78.8982H155.105C156.404 78.8982 157.65 78.3821 158.569 77.4636C159.487 76.545 160.003 75.2992 160.003 74.0002C160.003 72.7011 159.487 71.4553 158.569 70.5367C157.65 69.6182 156.404 69.1021 155.105 69.1021Z" fill="#844D2D"/>
</svg>
