<svg width="160" height="160" viewBox="0 0 160 160" fill="none" xmlns="http://www.w3.org/2000/svg">
<path d="M80 160C35.8187 160 0 124.181 0 80C0 35.8187 35.8187 0 80 0C124.181 0 160 35.8187 160 80C160 124.181 124.181 160 80 160ZM118.859 104.731V61.68C118.863 60.38 118.353 59.131 117.439 58.2058C116.526 57.2805 115.284 56.7541 113.984 56.7414H99.2106L97.2214 52.7253C97.0027 52.2241 95.04 48 92.3894 48H66.4694C63.76 48 61.7494 52.48 61.6641 52.6667L59.7281 56.5653L44.8747 56.7359C43.5751 56.7472 42.3329 57.2724 41.4194 58.1969C40.506 59.1213 39.9957 60.3698 40 61.6694V109.728C40 112.459 42.1973 114.667 44.8747 114.667H113.984C115.284 114.655 116.526 114.13 117.439 113.206C118.353 112.281 118.863 111.033 118.859 109.733V104.773C118.901 104.704 118.965 104.64 119.013 104.56C118.946 104.601 118.892 104.66 118.859 104.731V104.731ZM79.1786 100.667C69.9841 100.667 62.4853 93.0827 62.4853 83.7759C62.4853 74.4747 69.9681 66.8959 79.1786 66.8959C88.3947 66.8959 95.8827 74.4747 95.8827 83.7759C95.8827 93.0827 88.3947 100.667 79.1841 100.667H79.1786ZM100.853 67.4559C100.853 65.2694 102.603 63.488 104.741 63.488C106.88 63.488 108.635 65.2641 108.635 67.4506C108.636 68.4891 108.228 69.4863 107.5 70.2261C106.771 70.9659 105.78 71.3886 104.741 71.4027C103.703 71.3928 102.711 70.972 101.982 70.2323C101.254 69.4926 100.848 68.4943 100.853 67.4559ZM79.1841 72.1067C72.8159 72.1067 67.6214 77.3441 67.6214 83.7814C67.6214 90.208 72.8053 95.4614 79.1839 95.4614C85.552 95.4614 90.7414 90.2239 90.7414 83.7814C90.7542 80.7015 89.5444 77.7423 87.3776 75.5535C85.2108 73.3647 82.264 72.125 79.1841 72.1067Z" fill="#844D2D"/>
</svg>
